# xmcd
# Track frame offsets:
# 150
# 12410
# 24310
# 37235
# 50173
# 62360
# 73855
# 87270
# 100058
# 113370
# 128385
# 142595
# 155688
# 168255
# 181605
# 194973
#
# Disc length: 2756 seconds
# Revision: 0
# Processed by: cddbd v1.4PL0 Copyright (c) Steve Scherf et al.
# Submitted via: VisiTrax 2.9.5.181 - For more info visit www.synapsa.com
#
DISCID=cd0ac210
DTITLE=Olimpo Cardenas - 16 Grandes Exitos de
DYEAR=1996
DGENRE=Bolero
TTITLE0=Tu duda y la mia
TTITLE1=Pensamiento
TTITLE2=Te regalo el corazon
TTITLE3=El alma en los labios
TTITLE4=Un viejo amor
TTITLE5=Honda Pena
TTITLE6=Nuestro Juramento
TTITLE7=Llora conmigo
TTITLE8=Triste ofrenda
TTITLE9=Un mundo raro
TTITLE10=Lagrimas de amor
TTITLE11=Que pena
TTITLE12=Cataclismo
TTITLE13=Pesimismo
TTITLE14=La fe verdadera
TTITLE15=Una noche serena y oscura
EXTD=
EXTT0=
EXTT1=
EXTT2=
EXTT3=
EXTT4=
EXTT5=
EXTT6=
EXTT7=
EXTT8=
EXTT9=
EXTT10=
EXTT11=
EXTT12=
EXTT13=
EXTT14=
EXTT15=
PLAYORDER=
